<svg width="800" height="64" viewBox="0 0 800 64" fill="none" xmlns="http://www.w3.org/2000/svg">
<path d="M5.75938 29.4909V39.28H4.275V29.4909H0.493752V28.2722H9.54063V29.4909H5.75938ZM9.89063 35.3503C9.89063 36.3191 10.0911 37.0665 10.4922 37.5925C10.8932 38.1185 11.4792 38.3816 12.25 38.3816C12.8594 38.3816 13.3464 38.2592 13.7109 38.0144C14.0807 37.7696 14.3307 37.4597 14.4609 37.0847L15.6953 37.4362C15.1901 38.7696 14.0417 39.4362 12.25 39.4362C11 39.4362 10.0469 39.0639 9.39063 38.3191C8.73958 37.5743 8.41406 36.4675 8.41406 34.9987C8.41406 33.6029 8.73958 32.5326 9.39063 31.7878C10.0469 31.043 10.9818 30.6706 12.1953 30.6706C13.4401 30.6706 14.3724 31.0456 14.9922 31.7956C15.612 32.5456 15.9219 33.668 15.9219 35.1628V35.3503H9.89063ZM14.4688 34.2722C14.3906 33.3816 14.1641 32.7331 13.7891 32.3269C13.4141 31.9154 12.875 31.7097 12.1719 31.7097C11.4896 31.7097 10.9479 31.9389 10.5469 32.3972C10.151 32.8503 9.9375 33.4753 9.90625 34.2722H14.4688ZM20.5609 39.4362C19.3786 39.4362 18.475 39.0639 17.85 38.3191C17.2302 37.5691 16.9203 36.4779 16.9203 35.0456C16.9203 33.6237 17.2328 32.5404 17.8578 31.7956C18.4828 31.0456 19.3786 30.6706 20.5453 30.6706C21.4099 30.6706 22.126 30.8946 22.6938 31.3425C23.2667 31.7904 23.626 32.4076 23.7719 33.1941L22.3266 33.3034C22.2536 32.8347 22.0688 32.4623 21.7719 32.1862C21.475 31.9102 21.0531 31.7722 20.5063 31.7722C19.7615 31.7722 19.2224 32.0196 18.8891 32.5144C18.5557 33.0092 18.3891 33.8425 18.3891 35.0144C18.3891 36.1394 18.5661 36.9727 18.9203 37.5144C19.2745 38.056 19.8083 38.3269 20.5219 38.3269C21.0219 38.3269 21.4385 38.1915 21.7719 37.9206C22.1104 37.6498 22.3188 37.2331 22.3969 36.6706L23.8188 36.7644C23.7458 37.306 23.5635 37.7774 23.2719 38.1784C22.9854 38.5795 22.6104 38.8894 22.1469 39.1081C21.6885 39.3269 21.1599 39.4362 20.5609 39.4362ZM26.3172 32.2722C26.6193 31.7201 26.9813 31.3165 27.4031 31.0612C27.8302 30.8008 28.3693 30.6706 29.0203 30.6706C29.937 30.6706 30.6115 30.9102 31.0438 31.3894C31.4813 31.8633 31.7 32.6159 31.7 33.6472V39.28H30.2859V33.9206C30.2859 33.155 30.1505 32.6029 29.8797 32.2644C29.6141 31.9258 29.1688 31.7566 28.5438 31.7566C27.8823 31.7566 27.351 31.9857 26.95 32.4441C26.5542 32.9024 26.3563 33.5196 26.3563 34.2956V39.28H24.95V27.6862H26.3563V30.7019C26.3563 30.9102 26.351 31.1316 26.3406 31.3659C26.3302 31.5951 26.3198 31.7956 26.3094 31.9675C26.3042 32.1342 26.299 32.2357 26.2938 32.2722H26.3172ZM42.7516 38.2253C43.4703 38.2253 44.1396 38.1159 44.7594 37.8972C45.3844 37.6784 45.8896 37.3816 46.275 37.0066V35.0222H42.9859V33.7722H47.65V37.5691C47.0667 38.1628 46.3505 38.6237 45.5016 38.9519C44.6578 39.2748 43.7411 39.4362 42.7516 39.4362C41.6057 39.4362 40.6188 39.2045 39.7906 38.7409C38.9625 38.2774 38.3245 37.6185 37.8766 36.7644C37.4286 35.905 37.2047 34.892 37.2047 33.7253C37.2047 31.9389 37.6839 30.556 38.6422 29.5769C39.6005 28.5977 40.9469 28.1081 42.6813 28.1081C43.9 28.1081 44.8896 28.3139 45.65 28.7253C46.4104 29.1368 46.9964 29.7956 47.4078 30.7019L45.9859 31.1237C45.6734 30.4987 45.2411 30.043 44.6891 29.7566C44.1422 29.4701 43.4599 29.3269 42.6422 29.3269C41.3714 29.3269 40.4 29.7123 39.7281 30.4831C39.0563 31.2487 38.7203 32.3295 38.7203 33.7253C38.7203 35.1159 39.0771 36.2149 39.7906 37.0222C40.5042 37.8243 41.4911 38.2253 42.7516 38.2253ZM51.6875 39.4362C50.8385 39.4362 50.2005 39.2123 49.7734 38.7644C49.3464 38.3165 49.1328 37.7019 49.1328 36.9206C49.1328 36.0456 49.4193 35.3737 49.9922 34.905C50.5703 34.4362 51.5 34.1862 52.7812 34.155L54.6797 34.1237V33.6628C54.6797 32.9753 54.5339 32.4831 54.2422 32.1862C53.9505 31.8894 53.4922 31.7409 52.8672 31.7409C52.237 31.7409 51.7786 31.8477 51.4922 32.0612C51.2057 32.2748 51.0339 32.6159 50.9766 33.0847L49.5078 32.9519C49.7474 31.431 50.8776 30.6706 52.8984 30.6706C53.9609 30.6706 54.7604 30.9154 55.2969 31.405C55.8333 31.8894 56.1016 32.5925 56.1016 33.5144V37.155C56.1016 37.5717 56.1562 37.8868 56.2656 38.1003C56.375 38.3086 56.5833 38.4128 56.8906 38.4128C57.0365 38.4128 57.1901 38.3946 57.3516 38.3581V39.2331C57.1745 39.2748 56.9948 39.306 56.8125 39.3269C56.6302 39.3477 56.4479 39.3581 56.2656 39.3581C55.7448 39.3581 55.3646 39.2227 55.125 38.9519C54.8906 38.6758 54.7578 38.2461 54.7266 37.6628H54.6797C54.3203 38.3086 53.901 38.767 53.4219 39.0378C52.9479 39.3034 52.3698 39.4362 51.6875 39.4362ZM54.6797 35.1081L53.1406 35.1394C52.4844 35.1446 51.9844 35.2123 51.6406 35.3425C51.2969 35.4675 51.0339 35.6602 50.8516 35.9206C50.6693 36.181 50.5781 36.5222 50.5781 36.9441C50.5781 37.4024 50.7005 37.7566 50.9453 38.0066C51.1953 38.2566 51.5495 38.3816 52.0078 38.3816C52.5286 38.3816 52.987 38.2644 53.3828 38.03C53.7839 37.7956 54.099 37.4753 54.3281 37.0691C54.5625 36.6576 54.6797 36.2357 54.6797 35.8034V35.1081ZM65.1859 35.0144C65.1859 36.4883 64.9255 37.5951 64.4047 38.3347C63.8891 39.0691 63.113 39.4362 62.0766 39.4362C60.7745 39.4362 59.8995 38.9467 59.4516 37.9675H59.4125C59.4333 38.004 59.4438 38.4467 59.4438 39.2956V42.6003H58.0375V32.5534C58.0375 32.1211 58.0323 31.7618 58.0219 31.4753C58.0167 31.1836 58.0063 30.9675 57.9906 30.8269H59.35C59.3552 30.8477 59.363 30.9493 59.3734 31.1316C59.3891 31.3139 59.4021 31.5118 59.4125 31.7253C59.4229 31.9336 59.4281 32.0873 59.4281 32.1862H59.4594C59.7094 31.6654 60.0401 31.2852 60.4516 31.0456C60.863 30.8008 61.4047 30.6784 62.0766 30.6784C63.1182 30.6784 63.8969 31.0274 64.4125 31.7253C64.9281 32.4232 65.1859 33.5196 65.1859 35.0144ZM63.7094 35.0456C63.7094 33.8685 63.5505 33.0274 63.2328 32.5222C62.9151 32.017 62.4099 31.7644 61.7172 31.7644C60.9464 31.7644 60.3734 32.0326 59.9984 32.5691C59.6286 33.1003 59.4438 33.9623 59.4438 35.155C59.4438 36.2644 59.6208 37.0821 59.975 37.6081C60.3292 38.1342 60.9047 38.3972 61.7016 38.3972C62.3995 38.3972 62.9073 38.142 63.225 37.6316C63.5479 37.1159 63.7094 36.254 63.7094 35.0456Z" fill="#0A0A0A"/>
<path d="M142.653 31.1784V36.28H141.161V25.2722H142.653V29.9284H148.606V25.2722H150.098V36.28H148.606V31.1784H142.653ZM159.637 32.0456C159.637 33.5248 159.312 34.6264 158.661 35.3503C158.01 36.0743 157.065 36.4362 155.825 36.4362C154.591 36.4362 153.658 36.0612 153.028 35.3112C152.398 34.556 152.083 33.4675 152.083 32.0456C152.083 30.5873 152.398 29.4935 153.028 28.7644C153.663 28.0352 154.611 27.6706 155.872 27.6706C157.163 27.6706 158.114 28.0274 158.723 28.7409C159.333 29.4493 159.637 30.5508 159.637 32.0456ZM158.161 32.0456C158.161 30.879 157.986 30.0326 157.637 29.5066C157.294 28.9753 156.713 28.7097 155.895 28.7097C155.072 28.7097 154.476 28.9805 154.106 29.5222C153.742 30.0586 153.559 30.8998 153.559 32.0456C153.559 33.1602 153.739 33.9987 154.098 34.5612C154.463 35.1185 155.033 35.3972 155.809 35.3972C156.653 35.3972 157.255 35.1264 157.614 34.5847C157.979 34.043 158.161 33.1967 158.161 32.0456ZM162.825 31.3816V36.28H161.427V29.6316C161.427 29.1368 161.421 28.7409 161.411 28.4441C161.406 28.142 161.395 27.9362 161.38 27.8269H162.708C162.718 27.9415 162.729 28.0821 162.739 28.2487C162.749 28.4154 162.757 28.5899 162.762 28.7722C162.768 28.9493 162.77 29.1159 162.77 29.2722H162.794C163.096 28.6732 163.442 28.2566 163.833 28.0222C164.223 27.7878 164.7 27.6706 165.262 27.6706C165.903 27.6706 166.408 27.7982 166.778 28.0534C167.153 28.3086 167.413 28.7149 167.559 29.2722H167.583C167.874 28.7045 168.226 28.2956 168.637 28.0456C169.054 27.7956 169.557 27.6706 170.145 27.6706C170.999 27.6706 171.619 27.9024 172.005 28.3659C172.395 28.8295 172.591 29.5899 172.591 30.6472V36.28H171.2V30.9206C171.2 30.1029 171.088 29.5378 170.864 29.2253C170.64 28.9128 170.236 28.7566 169.653 28.7566C169.038 28.7566 168.559 28.9857 168.216 29.4441C167.877 29.8972 167.708 30.543 167.708 31.3816V36.28H166.317V30.9206C166.317 30.1029 166.205 29.5378 165.981 29.2253C165.757 28.9128 165.354 28.7566 164.77 28.7566C164.171 28.7566 163.697 28.9857 163.348 29.4441C162.999 29.9024 162.825 30.5482 162.825 31.3816ZM175.802 32.3503C175.802 33.3191 176.002 34.0665 176.403 34.5925C176.804 35.1185 177.39 35.3816 178.161 35.3816C178.77 35.3816 179.257 35.2592 179.622 35.0144C179.992 34.7696 180.242 34.4597 180.372 34.0847L181.606 34.4362C181.101 35.7696 179.953 36.4362 178.161 36.4362C176.911 36.4362 175.958 36.0639 175.302 35.3191C174.65 34.5743 174.325 33.4675 174.325 31.9987C174.325 30.6029 174.65 29.5326 175.302 28.7878C175.958 28.043 176.893 27.6706 178.106 27.6706C179.351 27.6706 180.283 28.0456 180.903 28.7956C181.523 29.5456 181.833 30.668 181.833 32.1628V32.3503H175.802ZM180.38 31.2722C180.302 30.3816 180.075 29.7331 179.7 29.3269C179.325 28.9154 178.786 28.7097 178.083 28.7097C177.4 28.7097 176.859 28.9389 176.458 29.3972C176.062 29.8503 175.848 30.4753 175.817 31.2722H180.38Z" fill="#717182"/>
<path d="M214.403 35.2097C215.945 35.2097 217.104 34.4467 217.88 32.9206L219.098 33.53C218.645 34.4779 218.007 35.1993 217.184 35.6941C216.367 36.1889 215.416 36.4362 214.333 36.4362C213.218 36.4362 212.26 36.2045 211.458 35.7409C210.656 35.2774 210.038 34.6185 209.606 33.7644C209.179 32.905 208.966 31.892 208.966 30.7253C208.966 29.5534 209.179 28.5482 209.606 27.7097C210.033 26.8711 210.648 26.2279 211.45 25.78C212.252 25.3321 213.21 25.1081 214.325 25.1081C215.497 25.1081 216.476 25.3373 217.262 25.7956C218.049 26.254 218.627 26.9336 218.997 27.8347L217.583 28.3034C217.328 27.6628 216.916 27.1732 216.348 26.8347C215.786 26.4961 215.117 26.3269 214.341 26.3269C213.122 26.3269 212.174 26.7201 211.497 27.5066C210.82 28.2878 210.481 29.3607 210.481 30.7253C210.481 31.6211 210.64 32.4076 210.958 33.0847C211.281 33.7566 211.734 34.28 212.317 34.655C212.906 35.0248 213.601 35.2097 214.403 35.2097ZM227.942 32.0456C227.942 33.5248 227.617 34.6264 226.966 35.3503C226.315 36.0743 225.369 36.4362 224.13 36.4362C222.895 36.4362 221.963 36.0612 221.333 35.3112C220.703 34.556 220.387 33.4675 220.387 32.0456C220.387 30.5873 220.703 29.4935 221.333 28.7644C221.968 28.0352 222.916 27.6706 224.177 27.6706C225.468 27.6706 226.419 28.0274 227.028 28.7409C227.637 29.4493 227.942 30.5508 227.942 32.0456ZM226.466 32.0456C226.466 30.879 226.291 30.0326 225.942 29.5066C225.598 28.9753 225.018 28.7097 224.2 28.7097C223.377 28.7097 222.781 28.9805 222.411 29.5222C222.046 30.0586 221.864 30.8998 221.864 32.0456C221.864 33.1602 222.044 33.9987 222.403 34.5612C222.768 35.1185 223.338 35.3972 224.114 35.3972C224.958 35.3972 225.559 35.1264 225.919 34.5847C226.283 34.043 226.466 33.1967 226.466 32.0456ZM231.137 31.3816V36.28H229.731V29.6316C229.731 29.1368 229.726 28.7409 229.716 28.4441C229.71 28.142 229.7 27.9362 229.684 27.8269H231.012C231.023 27.9258 231.031 28.0508 231.036 28.2019C231.046 28.3529 231.054 28.5196 231.059 28.7019C231.065 28.8842 231.07 29.0743 231.075 29.2722H231.098C231.421 28.6889 231.794 28.2774 232.216 28.0378C232.643 27.793 233.171 27.6706 233.802 27.6706C234.729 27.6706 235.406 27.9076 235.833 28.3816C236.265 28.8555 236.481 29.6107 236.481 30.6472V36.28H235.067V30.9206C235.067 30.1133 234.937 29.5508 234.677 29.2331C234.416 28.9154 233.966 28.7566 233.325 28.7566C232.648 28.7566 232.114 28.9883 231.723 29.4519C231.333 29.9154 231.137 30.5586 231.137 31.3816ZM241.856 36.2175C241.398 36.3425 240.924 36.405 240.434 36.405C239.872 36.405 239.45 36.2461 239.169 35.9284C238.887 35.6055 238.747 35.1264 238.747 34.4909V28.8503H237.77V27.8269H238.802L239.216 25.9362H240.153V27.8269H241.716V28.8503H240.153V34.1862C240.153 34.5925 240.218 34.879 240.348 35.0456C240.484 35.2071 240.716 35.2878 241.044 35.2878C241.221 35.2878 241.492 35.2514 241.856 35.1784V36.2175ZM244.137 32.3503C244.137 33.3191 244.338 34.0665 244.739 34.5925C245.14 35.1185 245.726 35.3816 246.497 35.3816C247.106 35.3816 247.593 35.2592 247.958 35.0144C248.328 34.7696 248.578 34.4597 248.708 34.0847L249.942 34.4362C249.437 35.7696 248.288 36.4362 246.497 36.4362C245.247 36.4362 244.294 36.0639 243.637 35.3191C242.986 34.5743 242.661 33.4675 242.661 31.9987C242.661 30.6029 242.986 29.5326 243.637 28.7878C244.294 28.043 245.229 27.6706 246.442 27.6706C247.687 27.6706 248.619 28.0456 249.239 28.7956C249.859 29.5456 250.169 30.668 250.169 32.1628V32.3503H244.137ZM248.716 31.2722C248.637 30.3816 248.411 29.7331 248.036 29.3269C247.661 28.9154 247.122 28.7097 246.419 28.7097C245.736 28.7097 245.195 28.9389 244.794 29.3972C244.398 29.8503 244.184 30.4753 244.153 31.2722H248.716ZM253.403 31.3816V36.28H251.997V29.6316C251.997 29.1368 251.992 28.7409 251.981 28.4441C251.976 28.142 251.966 27.9362 251.95 27.8269H253.278C253.288 27.9258 253.296 28.0508 253.302 28.2019C253.312 28.3529 253.32 28.5196 253.325 28.7019C253.33 28.8842 253.335 29.0743 253.341 29.2722H253.364C253.687 28.6889 254.059 28.2774 254.481 28.0378C254.908 27.793 255.437 27.6706 256.067 27.6706C256.994 27.6706 257.671 27.9076 258.098 28.3816C258.531 28.8555 258.747 29.6107 258.747 30.6472V36.28H257.333V30.9206C257.333 30.1133 257.203 29.5508 256.942 29.2331C256.682 28.9154 256.231 28.7566 255.591 28.7566C254.913 28.7566 254.38 28.9883 253.989 29.4519C253.598 29.9154 253.403 30.5586 253.403 31.3816ZM264.122 36.2175C263.663 36.3425 263.19 36.405 262.7 36.405C262.137 36.405 261.716 36.2461 261.434 35.9284C261.153 35.6055 261.012 35.1264 261.012 34.4909V28.8503H260.036V27.8269H261.067L261.481 25.9362H262.419V27.8269H263.981V28.8503H262.419V34.1862C262.419 34.5925 262.484 34.879 262.614 35.0456C262.749 35.2071 262.981 35.2878 263.309 35.2878C263.486 35.2878 263.757 35.2514 264.122 35.1784V36.2175Z" fill="#717182"/>
<path d="M659.667 35.9336V37H653.494V27.3682H654.8V35.9336H659.667ZM667.337 33.2949C667.337 34.5892 667.052 35.5531 666.482 36.1865C665.913 36.82 665.085 37.1367 664.001 37.1367C662.921 37.1367 662.105 36.8086 661.553 36.1523C661.002 35.4915 660.726 34.5391 660.726 33.2949C660.726 32.0189 661.002 31.0618 661.553 30.4238C662.109 29.7858 662.939 29.4668 664.042 29.4668C665.172 29.4668 666.004 29.779 666.537 30.4033C667.07 31.0231 667.337 31.987 667.337 33.2949ZM666.045 33.2949C666.045 32.2741 665.892 31.5335 665.587 31.0732C665.286 30.6084 664.778 30.376 664.062 30.376C663.342 30.376 662.82 30.613 662.497 31.0869C662.178 31.5563 662.018 32.2923 662.018 33.2949C662.018 34.2702 662.176 35.0039 662.49 35.4961C662.809 35.9837 663.308 36.2275 663.987 36.2275C664.725 36.2275 665.252 35.9906 665.566 35.5166C665.885 35.0426 666.045 34.3021 666.045 33.2949ZM671.677 39.9053C670.871 39.9053 670.228 39.7458 669.75 39.4268C669.271 39.1123 668.964 38.6634 668.827 38.0801L670.064 37.9023C670.146 38.2441 670.326 38.5062 670.604 38.6885C670.887 38.8753 671.256 38.9688 671.712 38.9688C672.322 38.9688 672.78 38.7887 673.086 38.4287C673.396 38.0687 673.551 37.5309 673.551 36.8154V35.626H673.537C673.304 36.0999 672.985 36.4577 672.58 36.6992C672.174 36.9362 671.7 37.0547 671.158 37.0547C670.251 37.0547 669.583 36.7539 669.155 36.1523C668.731 35.5508 668.519 34.6051 668.519 33.3154C668.519 32.0075 668.747 31.0436 669.203 30.4238C669.663 29.7995 670.36 29.4873 671.295 29.4873C671.819 29.4873 672.272 29.6081 672.655 29.8496C673.042 30.0866 673.341 30.4261 673.551 30.8682H673.564C673.564 30.777 673.569 30.6357 673.578 30.4443C673.587 30.2484 673.598 30.0638 673.612 29.8906C673.626 29.7174 673.637 29.6217 673.646 29.6035H674.815C674.788 29.8496 674.774 30.36 674.774 31.1348V36.7881C674.774 37.8271 674.517 38.6064 674.002 39.126C673.487 39.6455 672.712 39.9053 671.677 39.9053ZM673.551 33.3018C673.551 32.404 673.366 31.6976 672.997 31.1826C672.632 30.6631 672.165 30.4033 671.595 30.4033C670.967 30.4033 670.509 30.6312 670.221 31.0869C669.934 31.5426 669.791 32.2809 669.791 33.3018C669.791 34.3135 669.925 35.0404 670.194 35.4824C670.463 35.9245 670.923 36.1455 671.575 36.1455C672.158 36.1455 672.632 35.8926 672.997 35.3867C673.366 34.8763 673.551 34.1813 673.551 33.3018ZM677.891 26.8555V28.0312H676.661V26.8555H677.891ZM677.891 29.6035V37H676.661V29.6035H677.891ZM681.043 32.7139V37H679.812V31.1826C679.812 30.7497 679.808 30.4033 679.799 30.1436C679.794 29.8792 679.785 29.6992 679.771 29.6035H680.933C680.942 29.6901 680.949 29.7995 680.954 29.9316C680.963 30.0638 680.97 30.2096 680.974 30.3691C680.979 30.5286 680.983 30.695 680.988 30.8682H681.009C681.291 30.3577 681.617 29.9977 681.986 29.7881C682.36 29.5739 682.822 29.4668 683.374 29.4668C684.185 29.4668 684.777 29.6742 685.151 30.0889C685.529 30.5036 685.719 31.1644 685.719 32.0713V37H684.481V32.3105C684.481 31.6042 684.367 31.112 684.139 30.834C683.912 30.556 683.517 30.417 682.957 30.417C682.364 30.417 681.897 30.6198 681.555 31.0254C681.214 31.431 681.043 31.9938 681.043 32.7139Z" fill="#0A0A0A"/>
<mask id="path-6-inside-1_20_1921" fill="white">
<path d="M715.22 22C715.22 17.5817 718.802 14 723.22 14H792C796.418 14 800 17.5817 800 22V42C800 46.4183 796.418 50 792 50H723.22C718.802 50 715.22 46.4183 715.22 42V22Z"/>
</mask>
<path d="M715.22 22C715.22 17.5817 718.802 14 723.22 14H792C796.418 14 800 17.5817 800 22V42C800 46.4183 796.418 50 792 50H723.22C718.802 50 715.22 46.4183 715.22 42V22Z" fill="white"/>
<path d="M723.22 14V14.64H792V14V13.36H723.22V14ZM800 22H799.36V42H800H800.64V22H800ZM792 50V49.36H723.22V50V50.64H792V50ZM715.22 42H715.86V22H715.22H714.58V42H715.22ZM723.22 50V49.36C719.155 49.36 715.86 46.0648 715.86 42H715.22H714.58C714.58 46.7717 718.448 50.64 723.22 50.64V50ZM800 42H799.36C799.36 46.0648 796.065 49.36 792 49.36V50V50.64C796.772 50.64 800.64 46.7717 800.64 42H800ZM792 14V14.64C796.065 14.64 799.36 17.9352 799.36 22H800H800.64C800.64 17.2283 796.772 13.36 792 13.36V14ZM723.22 14V13.36C718.448 13.36 714.58 17.2283 714.58 22H715.22H715.86C715.86 17.9352 719.155 14.64 723.22 14.64V14Z" fill="black" fill-opacity="0.1" mask="url(#path-6-inside-1_20_1921)"/>
<path d="M733.978 33.001V37H732.672V27.3682H737.205C738.289 27.3682 739.125 27.612 739.713 28.0996C740.306 28.5827 740.602 29.2572 740.602 30.123C740.602 30.8385 740.392 31.4401 739.973 31.9277C739.558 32.4154 738.984 32.723 738.25 32.8506L740.985 37H739.481L736.979 33.001H733.978ZM739.29 30.1367C739.29 29.5762 739.098 29.1501 738.715 28.8584C738.337 28.5622 737.79 28.4141 737.075 28.4141H733.978V31.9688H737.129C737.818 31.9688 738.348 31.8092 738.722 31.4902C739.1 31.1667 739.29 30.7155 739.29 30.1367ZM743.528 33.5615C743.528 34.4092 743.703 35.0632 744.054 35.5234C744.405 35.9837 744.918 36.2139 745.592 36.2139C746.125 36.2139 746.552 36.1068 746.871 35.8926C747.194 35.6784 747.413 35.4072 747.527 35.0791L748.607 35.3867C748.165 36.5534 747.16 37.1367 745.592 37.1367C744.499 37.1367 743.665 36.8109 743.09 36.1592C742.521 35.5075 742.236 34.5391 742.236 33.2539C742.236 32.0326 742.521 31.096 743.09 30.4443C743.665 29.7926 744.483 29.4668 745.544 29.4668C746.634 29.4668 747.449 29.7949 747.992 30.4512C748.534 31.1074 748.805 32.0895 748.805 33.3975V33.5615H743.528ZM747.534 32.6182C747.465 31.8389 747.267 31.2715 746.939 30.916C746.611 30.556 746.139 30.376 745.524 30.376C744.927 30.376 744.453 30.5765 744.102 30.9775C743.756 31.374 743.569 31.9209 743.542 32.6182H747.534ZM753.18 39.9053C752.374 39.9053 751.731 39.7458 751.252 39.4268C750.774 39.1123 750.466 38.6634 750.33 38.0801L751.567 37.9023C751.649 38.2441 751.829 38.5062 752.107 38.6885C752.389 38.8753 752.759 38.9688 753.214 38.9688C753.825 38.9688 754.283 38.7887 754.588 38.4287C754.898 38.0687 755.053 37.5309 755.053 36.8154V35.626H755.04C754.807 36.0999 754.488 36.4577 754.083 36.6992C753.677 36.9362 753.203 37.0547 752.661 37.0547C751.754 37.0547 751.086 36.7539 750.658 36.1523C750.234 35.5508 750.022 34.6051 750.022 33.3154C750.022 32.0075 750.25 31.0436 750.706 30.4238C751.166 29.7995 751.863 29.4873 752.797 29.4873C753.321 29.4873 753.775 29.6081 754.158 29.8496C754.545 30.0866 754.844 30.4261 755.053 30.8682H755.067C755.067 30.777 755.071 30.6357 755.081 30.4443C755.09 30.2484 755.101 30.0638 755.115 29.8906C755.128 29.7174 755.14 29.6217 755.149 29.6035H756.318C756.291 29.8496 756.277 30.36 756.277 31.1348V36.7881C756.277 37.8271 756.019 38.6064 755.504 39.126C754.989 39.6455 754.215 39.9053 753.18 39.9053ZM755.053 33.3018C755.053 32.404 754.869 31.6976 754.5 31.1826C754.135 30.6631 753.668 30.4033 753.098 30.4033C752.469 30.4033 752.011 30.6312 751.724 31.0869C751.437 31.5426 751.293 32.2809 751.293 33.3018C751.293 34.3135 751.428 35.0404 751.697 35.4824C751.966 35.9245 752.426 36.1455 753.078 36.1455C753.661 36.1455 754.135 35.8926 754.5 35.3867C754.869 34.8763 755.053 34.1813 755.053 33.3018ZM759.394 26.8555V28.0312H758.164V26.8555H759.394ZM759.394 29.6035V37H758.164V29.6035H759.394ZM766.838 34.9561C766.838 35.6533 766.574 36.1911 766.045 36.5693C765.521 36.9476 764.785 37.1367 763.837 37.1367C762.917 37.1367 762.206 36.9863 761.705 36.6855C761.208 36.3802 760.884 35.9062 760.734 35.2637L761.821 35.0518C761.926 35.4482 762.142 35.7399 762.47 35.9268C762.798 36.109 763.254 36.2002 763.837 36.2002C764.462 36.2002 764.917 36.1045 765.205 35.9131C765.496 35.7217 765.642 35.4346 765.642 35.0518C765.642 34.7601 765.542 34.5231 765.341 34.3408C765.141 34.1585 764.817 34.0081 764.371 33.8896C763.842 33.7484 763.42 33.6322 763.106 33.541C762.796 33.4499 762.557 33.3724 762.388 33.3086C762.22 33.2402 762.085 33.1764 761.985 33.1172C761.684 32.944 761.449 32.7321 761.281 32.4814C761.112 32.2308 761.028 31.9232 761.028 31.5586C761.028 30.8841 761.267 30.3714 761.746 30.0205C762.229 29.665 762.931 29.4873 763.851 29.4873C764.667 29.4873 765.314 29.6309 765.792 29.918C766.276 30.2051 766.581 30.6654 766.708 31.2988L765.601 31.4355C765.533 31.1074 765.348 30.8568 765.047 30.6836C764.751 30.5059 764.352 30.417 763.851 30.417C763.295 30.417 762.885 30.5013 762.621 30.6699C762.356 30.8385 762.224 31.0938 762.224 31.4355C762.224 31.6862 762.299 31.8936 762.45 32.0576C762.6 32.2171 762.887 32.3493 763.311 32.4541C763.881 32.5908 764.423 32.7412 764.938 32.9053C765.453 33.0648 765.822 33.2243 766.045 33.3838C766.305 33.5706 766.501 33.7917 766.633 34.0469C766.77 34.2975 766.838 34.6006 766.838 34.9561ZM771.131 36.9453C770.73 37.0547 770.316 37.1094 769.887 37.1094C769.395 37.1094 769.026 36.9704 768.78 36.6924C768.534 36.4098 768.411 35.9906 768.411 35.4346V30.499H767.556V29.6035H768.458L768.821 27.9492H769.641V29.6035H771.008V30.499H769.641V35.168C769.641 35.5234 769.698 35.7741 769.812 35.9199C769.931 36.0612 770.133 36.1318 770.42 36.1318C770.575 36.1318 770.812 36.0999 771.131 36.0361V36.9453ZM773.127 33.5615C773.127 34.4092 773.303 35.0632 773.654 35.5234C774.005 35.9837 774.517 36.2139 775.192 36.2139C775.725 36.2139 776.151 36.1068 776.47 35.8926C776.794 35.6784 777.013 35.4072 777.126 35.0791L778.207 35.3867C777.764 36.5534 776.76 37.1367 775.192 37.1367C774.098 37.1367 773.264 36.8109 772.69 36.1592C772.12 35.5075 771.835 34.5391 771.835 33.2539C771.835 32.0326 772.12 31.096 772.69 30.4443C773.264 29.7926 774.082 29.4668 775.144 29.4668C776.233 29.4668 777.049 29.7949 777.591 30.4512C778.134 31.1074 778.405 32.0895 778.405 33.3975V33.5615H773.127ZM777.133 32.6182C777.065 31.8389 776.867 31.2715 776.539 30.916C776.21 30.556 775.739 30.376 775.124 30.376C774.527 30.376 774.053 30.5765 773.702 30.9775C773.355 31.374 773.168 31.9209 773.141 32.6182H777.133ZM781.235 33.1445V37H780.004V31.3262C780.004 31.0664 780 30.793 779.991 30.5059C779.986 30.2188 779.977 29.918 779.963 29.6035H781.125C781.135 29.8132 781.141 30.0023 781.146 30.1709C781.155 30.3395 781.162 30.4876 781.167 30.6152C781.171 30.7383 781.173 30.8431 781.173 30.9297C781.178 31.0117 781.18 31.0732 781.18 31.1143H781.208C781.344 30.6676 781.495 30.3213 781.659 30.0752C781.818 29.8473 782 29.6901 782.206 29.6035C782.411 29.5124 782.664 29.4668 782.964 29.4668C783.133 29.4668 783.299 29.4896 783.463 29.5352V30.6631C783.308 30.6175 783.09 30.5947 782.807 30.5947C782.297 30.5947 781.907 30.8158 781.638 31.2578C781.369 31.6953 781.235 32.3242 781.235 33.1445Z" fill="#0A0A0A"/>
</svg>
